<svg width="16" height="16" viewBox="0 0 16 16" fill="none" xmlns="http://www.w3.org/2000/svg">
<path fill-rule="evenodd" clip-rule="evenodd" d="M6.09696 0C5.56914 0 5.14126 0.427881 5.14126 0.955699C5.14126 1.48352 5.56914 1.9114 6.09696 1.9114H9.28262C10.8661 1.9114 12.1497 3.19504 12.1497 4.7785V10.1498C12.1497 10.6776 12.5776 11.1055 13.1054 11.1055C13.6332 11.1055 14.0611 10.6776 14.0611 10.1498V4.7785C14.0611 2.13941 11.9217 0 9.28262 0H6.09696ZM3.54853 4.7785H8.64559C8.99747 4.7785 9.28273 5.06375 9.28273 5.41563V13.0612C9.28273 13.4131 8.99747 13.6984 8.64559 13.6984H3.54853C3.19665 13.6984 2.9114 13.4131 2.9114 13.0612V5.41563C2.9114 5.06375 3.19665 4.7785 3.54853 4.7785ZM1 5.41563C1 4.00811 2.14102 2.8671 3.54853 2.8671H8.64559C10.0531 2.8671 11.1941 4.00811 11.1941 5.41563V13.0612C11.1941 14.4687 10.0531 15.6098 8.64559 15.6098H3.54853C2.14102 15.6098 1 14.4687 1 13.0612V5.41563Z" fill="#0B2750"/>
</svg>
