<svg width="24" height="18" viewBox="0 0 24 18" fill="none" xmlns="http://www.w3.org/2000/svg">
<path fill-rule="evenodd" clip-rule="evenodd" d="M10.097 1C9.56914 1 9.14126 1.42788 9.14126 1.9557C9.14126 2.48352 9.56914 2.9114 10.097 2.9114H13.2826C14.8661 2.9114 16.1497 4.19504 16.1497 5.7785V11.1498C16.1497 11.6776 16.5776 12.1055 17.1054 12.1055C17.6332 12.1055 18.0611 11.6776 18.0611 11.1498V5.7785C18.0611 3.13941 15.9217 1 13.2826 1H10.097ZM7.54853 5.7785H12.6456C12.9975 5.7785 13.2827 6.06375 13.2827 6.41563V14.0612C13.2827 14.4131 12.9975 14.6984 12.6456 14.6984H7.54853C7.19665 14.6984 6.9114 14.4131 6.9114 14.0612V6.41563C6.9114 6.06375 7.19665 5.7785 7.54853 5.7785ZM5 6.41563C5 5.00811 6.14102 3.8671 7.54853 3.8671H12.6456C14.0531 3.8671 15.1941 5.00811 15.1941 6.41563V14.0612C15.1941 15.4687 14.0531 16.6098 12.6456 16.6098H7.54853C6.14102 16.6098 5 15.4687 5 14.0612V6.41563Z" fill="#0B2750"/>
</svg>
