<svg width="16" height="17" viewBox="0 0 16 17" fill="none" xmlns="http://www.w3.org/2000/svg">
<path fill-rule="evenodd" clip-rule="evenodd" d="M3.74113 1.71038C3.51179 1.37709 3.59776 0.923506 3.93316 0.697265C4.26856 0.471024 4.72637 0.5578 4.95571 0.891085L6.30866 2.85721H14.3906C14.8143 2.85721 15.1579 3.20074 15.1579 3.62451C15.1579 4.04827 14.8143 4.3918 14.3906 4.3918H7.36466L8.08821 5.44329H14.044C14.8916 5.44329 15.5786 6.13034 15.5786 6.97788V12.8321C15.5786 13.6195 14.9855 14.2685 14.2216 14.3565L14.9619 15.4322C15.1912 15.7655 15.1052 16.2191 14.7698 16.4453C14.4344 16.6716 13.9766 16.5848 13.7473 16.2515L12.4503 14.3667H12.4497L11.3937 12.8321H11.3943L7.36585 6.97788H7.36524L6.30924 5.44329H6.30985L5.5863 4.3918H5.58569L4.52969 2.85721H4.5303L3.74113 1.71038ZM2.75133 2.85721H2.53459C1.68706 2.85721 1 3.54427 1 4.3918V12.8321C1 13.6796 1.68706 14.3667 2.53459 14.3667H10.6713L9.61531 12.8321H2.53459V4.3918H3.80733L2.75133 2.85721ZM4.53088 5.44329H4.29195C3.86818 5.44329 3.52465 5.78682 3.52465 6.21058C3.52465 6.63435 3.86818 6.97788 4.29195 6.97788H5.58688L4.53088 5.44329ZM13.1726 12.8321L9.14421 6.97788H14.044V12.8321H13.1726ZM12.5094 10.5302C12.9332 10.5302 13.2767 10.1866 13.2767 9.76288C13.2767 9.33911 12.9332 8.99558 12.5094 8.99558C12.0857 8.99558 11.7422 9.33911 11.7422 9.76288C11.7422 10.1866 12.0857 10.5302 12.5094 10.5302Z" fill="#0B2750"/>
</svg>
