<svg width="16" height="17" viewBox="0 0 16 17" fill="none" xmlns="http://www.w3.org/2000/svg">
<path d="M8.875 2.875C8.875 2.39102 8.48398 2 8 2C7.51602 2 7.125 2.39102 7.125 2.875V9.51133L5.11797 7.5043C4.77617 7.1625 4.22109 7.1625 3.8793 7.5043C3.5375 7.84609 3.5375 8.40117 3.8793 8.74297L7.3793 12.243C7.72109 12.5848 8.27617 12.5848 8.61797 12.243L12.118 8.74297C12.4598 8.40117 12.4598 7.84609 12.118 7.5043C11.7762 7.1625 11.2211 7.1625 10.8793 7.5043L8.875 9.51133V2.875ZM2.75 11.625C1.78477 11.625 1 12.4098 1 13.375V14.25C1 15.2152 1.78477 16 2.75 16H13.25C14.2152 16 15 15.2152 15 14.25V13.375C15 12.4098 14.2152 11.625 13.25 11.625H10.4746L9.23594 12.8637C8.55234 13.5473 7.44492 13.5473 6.76133 12.8637L5.52539 11.625H2.75ZM12.8125 14.4688C12.4488 14.4688 12.1562 14.1762 12.1562 13.8125C12.1562 13.4488 12.4488 13.1562 12.8125 13.1562C13.1762 13.1562 13.4688 13.4488 13.4688 13.8125C13.4688 14.1762 13.1762 14.4688 12.8125 14.4688Z" fill="#0B2750"/>
</svg>
