<svg width="20" height="20" viewBox="0 0 20 20" fill="none" xmlns="http://www.w3.org/2000/svg">
<path d="M5.82422 2.53125L5.41797 3.75H2.5C1.12109 3.75 0 4.87109 0 6.25V16.25C0 17.6289 1.12109 18.75 2.5 18.75H17.5C18.8789 18.75 20 17.6289 20 16.25V6.25C20 4.87109 18.8789 3.75 17.5 3.75H14.582L14.1758 2.53125C13.9219 1.76563 13.207 1.25 12.3984 1.25H7.60156C6.79297 1.25 6.07813 1.76563 5.82422 2.53125ZM15 10C15 10.3438 14.7188 10.625 14.375 10.625H11.3789C11.1367 10.625 10.9375 10.4258 10.9375 10.1836C10.9375 10.0664 10.9844 9.95312 11.0664 9.87109L11.9922 8.94531C11.4609 8.42188 10.7461 8.125 10 8.125C9.25 8.125 8.52734 8.42188 7.99609 8.95703L7.22656 9.72656C6.85938 10.0937 6.26563 10.0937 5.90234 9.72656C5.53906 9.35938 5.53516 8.76563 5.90234 8.40234L6.67188 7.63281C7.55469 6.74609 8.75 6.25 10 6.25C11.2422 6.25 12.4375 6.74219 13.3203 7.61719L14.2461 6.69141C14.3281 6.60938 14.4414 6.5625 14.5586 6.5625C14.8008 6.5625 15 6.76172 15 7.00391V10ZM5 12.5C5 12.1562 5.28125 11.875 5.625 11.875H8.62109C8.86328 11.875 9.0625 12.0742 9.0625 12.3164C9.0625 12.4336 9.01562 12.5469 8.93359 12.6289L8.00781 13.5547C8.53906 14.0781 9.25391 14.375 10 14.375C10.75 14.375 11.4727 14.0781 12.0039 13.543L12.7734 12.7734C13.1406 12.4063 13.7344 12.4063 14.0977 12.7734C14.4609 13.1406 14.4648 13.7344 14.0977 14.0977L13.3281 14.8672C12.4453 15.7539 11.25 16.25 10 16.25C8.75781 16.25 7.5625 15.7578 6.67969 14.8828L5.75391 15.8086C5.67188 15.8906 5.55859 15.9375 5.44141 15.9375C5.19922 15.9375 5 15.7383 5 15.4961V12.5Z" fill="white"/>
</svg>
