<svg width="20" height="20" viewBox="0 0 20 20" fill="none" xmlns="http://www.w3.org/2000/svg">
<path fill-rule="evenodd" clip-rule="evenodd" d="M10 20C15.5228 20 20 15.5228 20 10C20 4.47715 15.5228 0 10 0C4.47715 0 0 4.47715 0 10C0 15.5228 4.47715 20 10 20ZM11.2501 14.4999C11.2501 15.1902 10.6905 15.7499 10.0001 15.7499C9.30979 15.7499 8.75014 15.1902 8.75014 14.4999L8.75014 8.99989C8.75014 8.30954 9.30979 7.74989 10.0001 7.74989C10.6905 7.74989 11.2501 8.30953 11.2501 8.99989L11.2501 14.4999ZM11.2501 5.49989C11.2501 6.19025 10.6905 6.74989 10.0001 6.74989C9.30979 6.74989 8.75014 6.19025 8.75014 5.49989C8.75014 4.80953 9.30979 4.24989 10.0001 4.24989C10.6905 4.24989 11.2501 4.80953 11.2501 5.49989Z" fill="#0082DC"/>
</svg>
