<svg width="20" height="21" viewBox="0 0 20 21" fill="none" xmlns="http://www.w3.org/2000/svg">
<path d="M15.5249 16.4263C18.0185 16.4027 20.0207 14.3644 19.9998 11.8708C19.9814 9.66404 18.3702 7.79676 16.1914 7.45541L16.1317 7.44494C15.5859 7.35961 15.0748 7.733 14.9911 8.27669C14.9074 8.82039 15.278 9.33331 15.8216 9.41645L15.8812 9.42692C17.0966 9.61847 17.9947 10.6583 18.0028 11.8875C18.0144 13.2777 16.8984 14.4138 15.5082 14.4269L10.552 14.4782C9.1618 14.4913 8.02697 13.3765 8.01534 11.9863C8.00503 10.7549 8.88556 9.69827 10.0954 9.48601L10.1548 9.47441C10.6991 9.37878 11.0611 8.85894 10.9661 8.31914C10.8711 7.77934 10.3517 7.41348 9.81178 7.50907L9.75229 7.52067C7.57949 7.89872 5.9998 9.79616 6.01827 12.0029C6.03913 14.4965 8.07514 16.4967 10.5687 16.4731L15.5249 16.4263ZM4.47508 4.54704C1.98152 4.5706 -0.0207026 6.60886 0.00016159 9.1025C0.0186255 11.3093 1.62981 13.1765 3.80863 13.5179L3.8683 13.5284C4.41411 13.6137 4.92519 13.2403 5.00891 12.6966C5.09264 12.1529 4.72201 11.64 4.17842 11.5568L4.11875 11.5464C2.90337 11.3548 2.00531 10.315 1.99723 9.08583C1.98779 7.69335 3.10378 6.55727 4.494 6.54413L9.44799 6.49511C10.8382 6.48198 11.973 7.59679 11.9847 8.98704C11.995 10.2184 11.1144 11.275 9.90246 11.4895L9.84297 11.5011C9.29868 11.5967 8.93669 12.1166 9.03169 12.6564C9.12668 13.1962 9.64615 13.562 10.186 13.4665L10.2455 13.4549C12.4205 13.0746 14.0002 11.1771 13.9817 8.97038C13.9609 6.47675 11.9249 4.47664 9.4313 4.50021L4.47508 4.54704Z" fill="#9ca3af"/>
</svg>
