<svg width="16" height="17" viewBox="0 0 16 17" fill="none" xmlns="http://www.w3.org/2000/svg">
<path d="M14.0494 8.5714C15.4619 7.1589 15.4619 4.8714 14.0494 3.4589C12.7994 2.2089 10.8294 2.0464 9.39188 3.0739L9.35187 3.1014C8.99187 3.3589 8.90938 3.8589 9.16687 4.2164C9.42437 4.5739 9.92437 4.6589 10.2819 4.4014L10.3219 4.3739C11.1244 3.8014 12.2219 3.8914 12.9169 4.5889C13.7044 5.3764 13.7044 6.6514 12.9169 7.4389L10.1119 10.2489C9.32437 11.0364 8.04937 11.0364 7.26187 10.2489C6.56437 9.5514 6.47438 8.4539 7.04688 7.6539L7.07437 7.6139C7.33187 7.2539 7.24687 6.7539 6.88937 6.4989C6.53187 6.2439 6.02938 6.3264 5.77438 6.6839L5.74688 6.7239C4.71688 8.1589 4.87937 10.1289 6.12937 11.3789C7.54188 12.7914 9.82938 12.7914 11.2419 11.3789L14.0494 8.5714ZM1.05938 7.9864C-0.353125 9.3989 -0.353125 11.6864 1.05938 13.0989C2.30938 14.3489 4.27938 14.5114 5.71688 13.4839L5.75688 13.4564C6.11688 13.1989 6.19938 12.6989 5.94187 12.3414C5.68438 11.9839 5.18437 11.8989 4.82688 12.1564L4.78688 12.1839C3.98438 12.7564 2.88688 12.6664 2.19188 11.9689C1.40438 11.1789 1.40438 9.9039 2.19188 9.1164L4.99688 6.3089C5.78438 5.5214 7.05938 5.5214 7.84688 6.3089C8.54438 7.0064 8.63437 8.1039 8.06187 8.9064L8.03438 8.9464C7.77688 9.3064 7.86188 9.8064 8.21937 10.0614C8.57687 10.3164 9.07938 10.2339 9.33438 9.8764L9.36187 9.8364C10.3919 8.3989 10.2294 6.4289 8.97937 5.1789C7.56687 3.7664 5.27938 3.7664 3.86688 5.1789L1.05938 7.9864Z" fill="#0B2750"/>
</svg>
