<svg width="16" height="17" viewBox="0 0 16 17" fill="none" xmlns="http://www.w3.org/2000/svg">
<path fill-rule="evenodd" clip-rule="evenodd" d="M3 0.5C1.34315 0.5 0 1.84315 0 3.5V13.5C0 15.1569 1.34315 16.5 3 16.5H13C14.6569 16.5 16 15.1569 16 13.5V3.5C16 1.84315 14.6569 0.5 13 0.5H3ZM3.5 2C2.39543 2 1.5 2.89543 1.5 4V13C1.5 14.1046 2.39543 15 3.5 15H12.5C13.6046 15 14.5 14.1046 14.5 13V4C14.5 2.89543 13.6046 2 12.5 2H3.5ZM9.9 7.35671V11.3C9.9 11.6866 10.2134 12 10.6 12C10.9866 12 11.3 11.6866 11.3 11.3V6.63333C11.3 5.73127 10.5687 5 9.66667 5H5C4.6134 5 4.3 5.3134 4.3 5.7C4.3 6.0866 4.6134 6.4 5 6.4H8.73539L4.39291 10.7425C4.10002 11.0354 4.10002 11.5102 4.39291 11.8031C4.6858 12.096 5.16068 12.096 5.45357 11.8031L9.9 7.35671Z" fill="#1D3150"/>
</svg>
