<svg width="16" height="16" viewBox="0 0 16 16" fill="none" xmlns="http://www.w3.org/2000/svg">
<g clip-path="url(#clip0_3088_52698)">
<path d="M11 0C10.5969 0 10.2313 0.24375 10.075 0.61875C9.91875 0.99375 10.0063 1.42188 10.2906 1.70938L11.5844 3L6.29375 8.29375C5.90313 8.68437 5.90313 9.31875 6.29375 9.70938C6.68438 10.1 7.31875 10.1 7.70938 9.70938L13 4.41563L14.2938 5.70937C14.5813 5.99687 15.0094 6.08125 15.3844 5.925C15.7594 5.76875 16.0031 5.40625 16.0031 5V1C16.0031 0.446875 15.5563 0 15.0031 0H11ZM2.5 1C1.11875 1 0 2.11875 0 3.5V13.5C0 14.8813 1.11875 16 2.5 16H12.5C13.8813 16 15 14.8813 15 13.5V10C15 9.44687 14.5531 9 14 9C13.4469 9 13 9.44687 13 10V13.5C13 13.775 12.775 14 12.5 14H2.5C2.225 14 2 13.775 2 13.5V3.5C2 3.225 2.225 3 2.5 3H6C6.55313 3 7 2.55312 7 2C7 1.44687 6.55313 1 6 1H2.5Z" fill="#0B2750"/>
</g>
<defs>
<clipPath id="clip0_3088_52698">
<rect width="16" height="16" fill="white"/>
</clipPath>
</defs>
</svg>
