<svg width="16" height="17" viewBox="0 0 16 17" fill="none" xmlns="http://www.w3.org/2000/svg">
<path fill-rule="evenodd" clip-rule="evenodd" d="M7.99975 0.5C7.44747 0.5 6.99975 0.947716 6.99975 1.5V9.51822C6.99975 10.0705 7.44747 10.5182 7.99975 10.5182C8.55204 10.5182 8.99975 10.0705 8.99975 9.51822V1.5C8.99975 0.947715 8.55204 0.5 7.99975 0.5ZM2.19754 6.36174C2.65389 5.11024 3.50121 4.03969 4.61353 3.30928C5.03444 3.03289 5.152 2.46699 4.87611 2.04531C4.60022 1.62364 4.03535 1.50587 3.61444 1.78226C2.17397 2.72816 1.07667 4.11453 0.48569 5.73525C-0.105289 7.35597 -0.158389 9.12449 0.334284 10.7779C0.826958 12.4312 1.8391 13.8812 3.22021 14.9121C4.60133 15.943 6.27768 16.4999 8.00002 16.4999C9.72235 16.4999 11.3987 15.9431 12.7798 14.9122C14.161 13.8812 15.1731 12.4313 15.6658 10.7779C16.1585 9.12457 16.1054 7.35605 15.5144 5.73533C14.9235 4.1146 13.8262 2.72822 12.3857 1.7823C11.9648 1.5059 11.4 1.62367 11.1241 2.04534C10.8482 2.46702 10.9657 3.03291 11.3866 3.30931C12.4989 4.03974 13.3463 5.11029 13.8026 6.3618C14.2589 7.6133 14.2999 8.97893 13.9195 10.2556C13.539 11.5324 12.7574 12.652 11.6909 13.448C10.6245 14.2441 9.33 14.6741 8.00003 14.6741C6.67006 14.6741 5.3756 14.2441 4.30911 13.448C3.24263 12.6519 2.46107 11.5323 2.08063 10.2556C1.70019 8.97887 1.7412 7.61324 2.19754 6.36174Z" fill="#0B2750"/>
</svg>
