<svg width="16" height="17" viewBox="0 0 16 17" fill="none" xmlns="http://www.w3.org/2000/svg">
<path fill-rule="evenodd" clip-rule="evenodd" d="M2.53459 2.85742C1.68706 2.85742 1 3.54448 1 4.39201V12.8323C1 13.6798 1.68706 14.3669 2.53459 14.3669H14.044C14.8916 14.3669 15.5786 13.6798 15.5786 12.8323V6.97809C15.5786 6.13055 14.8916 5.4435 14.044 5.4435H4.29195C3.86818 5.4435 3.52465 5.78703 3.52465 6.21079C3.52465 6.63456 3.86818 6.97809 4.29195 6.97809H14.044V12.8323H2.53459V4.39201H14.3906C14.8143 4.39201 15.1579 4.04848 15.1579 3.62472C15.1579 3.20095 14.8143 2.85742 14.3906 2.85742H2.53459ZM12.5094 10.5304C12.9332 10.5304 13.2767 10.1869 13.2767 9.76309C13.2767 9.33932 12.9332 8.99579 12.5094 8.99579C12.0857 8.99579 11.7422 9.33932 11.7422 9.76309C11.7422 10.1869 12.0857 10.5304 12.5094 10.5304Z" fill="#0B2750"/>
</svg>
