<svg width="20" height="21" viewBox="0 0 20 21" fill="none" xmlns="http://www.w3.org/2000/svg">
<path fill-rule="evenodd" clip-rule="evenodd" d="M10 20.5C15.5228 20.5 20 16.0228 20 10.5C20 4.97715 15.5228 0.5 10 0.5C4.47715 0.5 0 4.97715 0 10.5C0 16.0228 4.47715 20.5 10 20.5ZM8.75 6C8.75 5.30964 9.30964 4.75 10 4.75C10.6904 4.75 11.25 5.30964 11.25 6V11.5C11.25 12.1904 10.6904 12.75 10 12.75C9.30964 12.75 8.75 12.1904 8.75 11.5V6ZM8.75 15C8.75 14.3096 9.30964 13.75 10 13.75C10.6904 13.75 11.25 14.3096 11.25 15C11.25 15.6904 10.6904 16.25 10 16.25C9.30964 16.25 8.75 15.6904 8.75 15Z" fill="#FFC700"/>
</svg>
