<svg width="24" height="24" viewBox="0 0 24 24" fill="none" xmlns="http://www.w3.org/2000/svg">
<path d="M18.1061 12.1142C18.0959 10.2359 18.9455 8.8182 20.6651 7.77414C19.7029 6.39742 18.2494 5.63996 16.3302 5.49154C14.5134 5.34824 12.5276 6.55096 11.8008 6.55096C11.0332 6.55096 9.27259 5.54272 7.89074 5.54272C5.03494 5.58878 2 7.8202 2 12.3598C2 13.7007 2.24566 15.086 2.73698 16.5156C3.39208 18.3939 5.75657 23 8.22341 22.9232C9.51313 22.8925 10.4241 22.0071 12.1028 22.0071C13.7303 22.0071 14.5748 22.9232 16.0129 22.9232C18.5002 22.8874 20.6395 18.7009 21.2639 16.8175C17.927 15.2463 18.1061 12.2114 18.1061 12.1142ZM15.2094 3.7105C16.6066 2.05229 16.4786 0.542501 16.4377 0C15.2043 0.0716511 13.7764 0.839341 12.9626 1.78616C12.067 2.79951 11.5398 4.0534 11.6524 5.46595C12.9882 5.56831 14.2063 4.88251 15.2094 3.7105Z" fill="black"/>
</svg>
