<svg width="16" height="16" viewBox="0 0 16 16" fill="none" xmlns="http://www.w3.org/2000/svg">
<rect width="16" height="16" rx="8" fill="#5566E8"/>
<path d="M11.5704 4.67C10.9046 4.357 10.1927 4.12953 9.44839 4C9.35699 4.16605 9.25019 4.38938 9.17654 4.56705C8.38535 4.4475 7.60142 4.4475 6.82477 4.56705C6.75116 4.38938 6.64194 4.16605 6.54972 4C5.80462 4.12953 5.09189 4.35784 4.42608 4.67166C3.08313 6.71068 2.71907 8.69906 2.9011 10.6592C3.79181 11.3275 4.65503 11.7335 5.50367 11.9992C5.7132 11.7094 5.90008 11.4014 6.06107 11.0768C5.75446 10.9598 5.46079 10.8153 5.18331 10.6476C5.25693 10.5928 5.32893 10.5355 5.3985 10.4765C7.09092 11.2719 8.92981 11.2719 10.602 10.4765C10.6724 10.5355 10.7444 10.5928 10.8172 10.6476C10.5389 10.8161 10.2444 10.9606 9.93785 11.0776C10.0988 11.4014 10.2849 11.7103 10.4952 12C11.3447 11.7343 12.2087 11.3284 13.0994 10.6592C13.313 8.38688 12.7346 6.41677 11.5704 4.67ZM6.29164 9.45373C5.78359 9.45373 5.36694 8.97717 5.36694 8.39685C5.36694 7.81654 5.77469 7.33917 6.29164 7.33917C6.8086 7.33917 7.22523 7.81569 7.21635 8.39685C7.21716 8.97717 6.8086 9.45373 6.29164 9.45373ZM9.70887 9.45373C9.20081 9.45373 8.7842 8.97717 8.7842 8.39685C8.7842 7.81654 9.19193 7.33917 9.70887 7.33917C10.2258 7.33917 10.6425 7.81569 10.6336 8.39685C10.6336 8.97717 10.2258 9.45373 9.70887 9.45373Z" fill="white"/>
</svg>
