<svg width="24" height="24" viewBox="0 0 24 24" fill="none" xmlns="http://www.w3.org/2000/svg">
<path d="M3.0625 4C1.92383 4 1 4.92383 1 6.0625C1 6.71133 1.30508 7.32148 1.825 7.7125L11.175 14.725C11.6648 15.0902 12.3352 15.0902 12.825 14.725L22.175 7.7125C22.6949 7.32148 23 6.71133 23 6.0625C23 4.92383 22.0762 4 20.9375 4H3.0625ZM1 8.8125V17.75C1 19.2668 2.2332 20.5 3.75 20.5H20.25C21.7668 20.5 23 19.2668 23 17.75V8.8125L13.65 15.825C12.6703 16.5598 11.3297 16.5598 10.35 15.825L1 8.8125Z" fill="#0B2750"/>
</svg>
