<svg viewBox="0 0 800 800" height='100%' fill="currentColor" xmlns="http://www.w3.org/2000/svg"><g clip-path="url(#a)"><path d="M400 10C179.133 10 0 193.627 0 420.113c0 181.2 114.6 334.924 273.568 389.161 19.965 3.793 26.432-8.921 26.432-19.719v-76.35c-111.267 24.811-134.432-48.394-134.432-48.394-18.2-47.402-44.435-60.011-44.435-60.011-36.3-25.462 2.767-24.916 2.767-24.916 40.166 2.872 61.3 42.276 61.3 42.276 35.666 62.678 93.568 44.565 116.4 34.074 3.568-26.485 13.933-44.598 25.4-54.819-88.832-10.422-182.232-45.589-182.232-202.698 0-44.803 15.632-81.371 41.2-110.08-4.134-10.356-17.835-52.085 3.898-108.543 0 0 33.6-11.004 110.035 42.036C331.8 213.04 366 208.494 400 208.323c34 .171 68.235 4.717 100.2 13.807 76.368-53.04 109.901-42.036 109.901-42.036 21.766 56.493 8.067 98.22 3.934 108.543 25.666 28.709 41.165 65.31 41.165 110.08 0 157.517-93.565 192.207-182.632 202.356C486.901 613.787 500 638.736 500 677.012v112.543c0 10.902 6.4 23.716 26.701 19.686C685.533 754.935 800 601.244 800 420.113 800 193.627 620.901 10 400 10Z"/></g><defs><clipPath id="a"><path fill="#fff" d="M0 0h800v800H0z"/></clipPath></defs></svg>