<svg width="16" height="16" viewBox="0 0 16 16" fill="none" xmlns="http://www.w3.org/2000/svg">
<path fill-rule="evenodd" clip-rule="evenodd" d="M8 0C3.58 0 0 3.5482 0 7.92894C0 11.4375 2.29 14.4009 5.47 15.4515C5.87 15.5209 6.02 15.283 6.02 15.0749C6.02 14.8866 6.01 14.2622 6.01 13.5981C4 13.9648 3.48 13.1125 3.32 12.6665C3.23 12.4385 2.84 11.7348 2.5 11.5465C2.22 11.3979 1.82 11.0311 2.49 11.0212C3.12 11.0113 3.57 11.5961 3.72 11.8339C4.44 13.0332 5.59 12.6962 6.05 12.4881C6.12 11.9727 6.33 11.6258 6.56 11.4276C4.78 11.2294 2.92 10.5455 2.92 7.51267C2.92 6.6504 3.23 5.93679 3.74 5.38177C3.66 5.18354 3.38 4.37083 3.82 3.2806C3.82 3.2806 4.49 3.07246 6.02 4.09332C6.66 3.91491 7.34 3.82571 8.02 3.82571C8.7 3.82571 9.38 3.91491 10.02 4.09332C11.55 3.06255 12.22 3.2806 12.22 3.2806C12.66 4.37083 12.38 5.18354 12.3 5.38177C12.81 5.93679 13.12 6.64049 13.12 7.51267C13.12 10.5554 11.25 11.2294 9.47 11.4276C9.76 11.6754 10.01 12.1511 10.01 12.8944C10.01 13.9549 10 14.8073 10 15.0749C10 15.283 10.15 15.5308 10.55 15.4515C13.71 14.4009 16 11.4276 16 7.92894C16 3.5482 12.42 0 8 0Z" fill="#1A1E22"/>
</svg>
