<svg width="24" height="24" viewBox="0 0 24 24" fill="none" xmlns="http://www.w3.org/2000/svg">
<path d="M23.9999 12.2317C23.9999 11.2479 23.9216 10.5299 23.7522 9.7854H12.7346V14.226H19.2017C19.0714 15.3295 18.3673 16.9914 16.8026 18.1081L16.7807 18.2568L20.2642 21.0086L20.5056 21.0332C22.7221 18.9458 23.9999 15.8746 23.9999 12.2317Z" fill="#4285F4"/>
<path d="M12.7347 23.9314C15.9031 23.9314 18.5629 22.8678 20.5057 21.0331L16.8027 18.1081C15.8118 18.8127 14.4819 19.3046 12.7347 19.3046C9.63158 19.3046 6.99781 17.2173 6.05895 14.3323L5.92133 14.3442L2.29908 17.2027L2.25171 17.3369C4.18139 21.2457 8.14512 23.9314 12.7347 23.9314Z" fill="#34A853"/>
<path d="M6.05891 14.3325C5.81118 13.5879 5.66781 12.7902 5.66781 11.9659C5.66781 11.1416 5.81118 10.3439 6.04587 9.59934L6.03931 9.44078L2.37167 6.53638L2.25167 6.59458C1.45635 8.21662 1 10.0381 1 11.9659C1 13.8937 1.45635 15.7151 2.25167 17.3371L6.05891 14.3325Z" fill="#FBBC05"/>
<path d="M12.7347 4.62671C14.9382 4.62671 16.4246 5.59726 17.2721 6.40832L20.5839 3.11109C18.5499 1.18328 15.9031 0 12.7347 0C8.14512 0 4.18139 2.68562 2.25171 6.59439L6.04591 9.59915C6.99781 6.71409 9.63158 4.62671 12.7347 4.62671Z" fill="#EB4335"/>
</svg>
