<svg width="16" height="16" viewBox="0 0 16 16" fill="none" xmlns="http://www.w3.org/2000/svg">
<rect width="16" height="16" rx="8" fill="#007EBB"/>
<path d="M5.91862 12H4.14158V6.65881H5.91862V12ZM5.02915 5.93022C4.46091 5.93022 4 5.49093 4 4.96056C4 4.7058 4.10843 4.46148 4.30143 4.28134C4.49443 4.1012 4.7562 4 5.02915 4C5.30209 4 5.56386 4.1012 5.75686 4.28134C5.94986 4.46148 6.05829 4.7058 6.05829 4.96056C6.05829 5.49093 5.59719 5.93022 5.02915 5.93022ZM12.5695 12H10.7963V9.39994C10.7963 8.78029 10.7829 7.98562 9.87239 7.98562C8.94847 7.98562 8.80689 8.65885 8.80689 9.3553V12H7.03176V6.65881H8.7361V7.3874H8.76097C8.99821 6.96775 9.57774 6.52488 10.4423 6.52488C12.2408 6.52488 12.5714 7.63026 12.5714 9.06601V12H12.5695Z" fill="white"/>
</svg>
