<svg width="16" height="16" viewBox="0 0 16 16" fill="none" xmlns="http://www.w3.org/2000/svg">
<path fill-rule="evenodd" clip-rule="evenodd" d="M8 16C12.4183 16 16 12.4183 16 8C16 3.58172 12.4183 0 8 0C3.58172 0 0 3.58172 0 8C0 12.4183 3.58172 16 8 16ZM5.24101 11.5172C7.18353 11.5172 8.75826 9.94246 8.75826 7.99994C8.75826 6.05742 7.18353 4.4827 5.24101 4.4827C3.29849 4.4827 1.72377 6.05742 1.72377 7.99994C1.72377 9.94246 3.29849 11.5172 5.24101 11.5172ZM10.9306 11.3103C11.9019 11.3103 12.6893 9.82823 12.6893 7.99997C12.6893 6.17172 11.9019 4.68963 10.9306 4.68963C9.95937 4.68963 9.17201 6.17172 9.17201 7.99997C9.17201 9.82823 9.95937 11.3103 10.9306 11.3103ZM14.2756 7.99992C14.2756 9.67582 13.9977 11.0344 13.6549 11.0344C13.3121 11.0344 13.0342 9.67582 13.0342 7.99992C13.0342 6.32402 13.3121 4.96544 13.6549 4.96544C13.9977 4.96544 14.2756 6.32402 14.2756 7.99992Z" fill="black"/>
</svg>
