<svg width="16" height="16" viewBox="0 0 16 16" fill="none" xmlns="http://www.w3.org/2000/svg">
<path d="M8 0C3.58171 0 0 3.58171 0 8C0 12.4183 3.58171 16 8 16C12.4183 16 16 12.4183 16 8C16 3.58171 12.4183 0 8 0ZM11.7081 5.44065C11.5877 6.70565 11.0668 9.77542 10.8017 11.1923C10.6895 11.7917 10.4687 11.9928 10.255 12.0124C9.79045 12.0552 9.43761 11.7054 8.98765 11.4105C8.28355 10.9489 7.88577 10.6616 7.20229 10.2112C6.41245 9.69071 6.92448 9.40474 7.37461 8.937C7.49242 8.81464 9.53935 6.95281 9.57897 6.7839C9.5839 6.76277 9.58864 6.6839 9.54174 6.64248C9.49484 6.60106 9.42593 6.6151 9.3761 6.62635C9.30549 6.6424 8.18068 7.38586 6.00164 8.85674C5.6824 9.07597 5.39321 9.18279 5.1341 9.17719C4.84845 9.17103 4.299 9.01571 3.89052 8.8829C3.38952 8.72006 2.99132 8.63397 3.026 8.35739C3.04406 8.2133 3.24245 8.06599 3.62116 7.91545C5.95333 6.89937 7.50847 6.22947 8.28658 5.90577C10.5083 4.98168 10.9699 4.82116 11.2708 4.81581C11.337 4.81471 11.485 4.8311 11.5808 4.90887C11.6446 4.96427 11.6852 5.04159 11.6947 5.12552C11.7109 5.22973 11.7154 5.33543 11.7081 5.44065Z" fill="#24A0DD"/>
</svg>
