<svg width="16" height="16" viewBox="0 0 16 16" fill="currentColor" xmlns="http://www.w3.org/2000/svg">
<path d="M16 3.12724C15.4113 3.39113 14.7786 3.56948 14.1146 3.64969C14.7924 3.23904 15.3129 2.58881 15.5579 1.81406C14.9237 2.19425 14.2212 2.47039 13.4735 2.61922C12.8747 1.97437 12.0215 1.57141 11.0774 1.57141C9.26451 1.57141 7.79474 3.05696 7.79474 4.88928C7.79474 5.14932 7.82383 5.40256 7.87977 5.64539C5.15162 5.50703 2.73286 4.1861 1.11384 2.17876C0.83128 2.66879 0.6694 3.23874 0.6694 3.84679C0.6694 4.99788 1.24897 6.01347 2.12977 6.60843C1.59163 6.59122 1.08551 6.44198 0.642891 6.19344C0.642657 6.2073 0.642657 6.22122 0.642657 6.23514C0.642657 7.84273 1.77417 9.18375 3.27585 9.48854C3.00037 9.56438 2.71038 9.60493 2.41097 9.60493C2.19947 9.60493 1.99381 9.58413 1.79342 9.54538C2.21111 10.8636 3.42339 11.8228 4.85981 11.8496C3.73638 12.7395 2.32096 13.27 0.783057 13.27C0.518117 13.27 0.256805 13.2543 0 13.2236C1.45269 14.165 3.17817 14.7143 5.03193 14.7143C11.0698 14.7143 14.3715 9.65853 14.3715 5.27402C14.3715 5.13016 14.3683 4.98706 14.362 4.84479C15.0033 4.377 15.5599 3.79261 16 3.12724Z" />
</svg>
