<svg width="16" height="16" viewBox="0 0 16 16" fill="none" xmlns="http://www.w3.org/2000/svg">
<rect width="16" height="16" rx="8" fill="#2C9DE8"/>
<path d="M12.5716 5.45079C12.2352 5.59995 11.8736 5.70075 11.4942 5.74609C11.8815 5.51398 12.1789 5.14647 12.319 4.70856C11.9565 4.92345 11.5551 5.07953 11.1278 5.16365C10.7857 4.79917 10.2982 4.57141 9.75867 4.57141C8.72272 4.57141 7.88285 5.41107 7.88285 6.44673C7.88285 6.59371 7.89947 6.73684 7.93144 6.8741C6.37249 6.79589 4.99034 6.04928 4.06519 4.91469C3.90373 5.19167 3.81123 5.51382 3.81123 5.8575C3.81123 6.50811 4.14241 7.08214 4.64572 7.41842C4.33821 7.4087 4.049 7.32434 3.79608 7.18386C3.79594 7.1917 3.79594 7.19957 3.79594 7.20743C3.79594 8.11607 4.44252 8.87404 5.30062 9.04631C5.14321 9.08918 4.9775 9.11209 4.80641 9.11209C4.68555 9.11209 4.56803 9.10034 4.45352 9.07844C4.6922 9.82351 5.38493 10.3657 6.20575 10.3808C5.56378 10.8838 4.75497 11.1836 3.87617 11.1836C3.72478 11.1836 3.57546 11.1748 3.42871 11.1575C4.25882 11.6895 5.24481 12 6.3041 12C9.75429 12 11.641 9.14239 11.641 6.66419C11.641 6.58288 11.6392 6.50199 11.6356 6.42158C12.002 6.15718 12.3201 5.82687 12.5716 5.45079Z" fill="white"/>
</svg>
