<svg width="1025" height="1024" viewBox="0 0 1025 1024" fill="none" xmlns="http://www.w3.org/2000/svg">
<path fill-rule="evenodd" clip-rule="evenodd" d="M1023.82 498.769L1023.82 498.789C1024.15 511.089 1024.03 523.379 1023.45 535.659C1023.45 536.776 1023.37 537.901 1023.28 539.018L1023.26 539.329C1023.01 545.779 1022.48 552.159 1021.85 558.499C1021.57 562.349 1021.19 566.109 1020.72 569.869C1018.6 589.321 1015.31 608.627 1010.85 627.679C1009.35 634.339 1007.71 641.069 1005.78 647.599C1000.4 667.161 993.902 686.399 986.319 705.218C972.614 738.702 955.412 770.646 934.999 800.518C927.473 811.431 919.579 822.054 911.319 832.388C900.179 846.018 888.469 859.527 876.069 871.957C875.958 872.13 875.793 872.26 875.599 872.327C869.189 877.077 859.429 870.707 861.319 862.837C861.434 862.091 861.653 861.364 861.969 860.677C862.279 859.707 862.569 858.757 862.849 857.757C867.576 840.997 868.633 823.414 865.949 806.208C865.28 801.686 864.328 797.21 863.099 792.808C862.207 789.672 861.16 786.582 860.112 783.491C858.493 778.715 856.873 773.94 855.829 768.998C854.281 761.208 853.544 753.28 853.629 745.338C853.567 729.225 856.75 713.264 862.989 698.408C863.2 697.857 863.451 697.323 863.739 696.808C865.809 692.958 867.779 689.008 869.659 685.058C869.804 684.818 869.931 684.567 870.039 684.308C871.335 681.566 872.583 678.84 873.829 676.119C874.563 674.514 875.297 672.911 876.039 671.308C876.061 671.107 876.126 670.913 876.229 670.738C882.078 657.371 887.163 643.682 891.459 629.739C893.859 622.169 895.889 614.719 897.749 606.999C898.689 603.239 899.629 599.389 900.389 595.529C902.269 587.169 903.769 578.709 904.899 570.249C906.279 561.109 907.343 551.899 908.089 542.619C908.111 541.833 908.174 541.049 908.279 540.269C909.214 526.473 909.435 512.638 908.939 498.819C908.939 497.167 908.862 495.583 908.782 493.947C908.771 493.722 908.76 493.497 908.749 493.27C908.399 483.86 907.569 474.65 906.489 465.36C906.474 464.948 906.414 464.539 906.309 464.14C905.929 460.38 905.369 456.52 904.799 452.76C903.965 446.264 902.681 439.736 901.411 433.279C901.097 431.684 900.784 430.094 900.479 428.51C897.128 413.014 892.86 397.731 887.699 382.74C884.219 372.47 880.209 362.21 875.759 352.29C872.289 344.09 868.289 336.11 864.289 328.23L864.029 327.734C862.337 324.511 860.652 321.3 858.749 318.171C856.761 314.472 854.597 310.857 852.435 307.245L852.169 306.801C852.02 306.48 851.842 306.205 851.666 305.934C851.512 305.696 851.36 305.462 851.229 305.201C849.159 301.821 846.999 298.431 844.839 295.141C839.519 286.921 833.919 278.951 827.919 271.271C826.131 268.808 824.223 266.444 822.301 264.063C821.289 262.809 820.273 261.551 819.269 260.271C816.359 256.561 813.349 253.031 810.159 249.561C791.841 228.686 771.36 209.814 749.059 193.261C748.733 192.917 748.351 192.629 747.929 192.411C746.224 191.35 744.599 190.163 743.069 188.861C741.443 187.681 739.803 186.518 738.149 185.371C727.559 178.011 716.589 171.241 705.329 164.951C693.993 158.539 682.342 152.702 670.419 147.462C666.026 145.575 661.599 143.782 657.139 142.082C644.889 137.402 632.549 133.142 619.829 129.562C607.109 125.982 594.199 123.092 581.199 120.792C579.526 120.535 577.85 120.257 576.169 119.979C572.146 119.311 568.097 118.64 563.999 118.252C560.139 117.692 556.249 117.222 552.249 116.842C551.162 116.655 550.062 116.562 548.959 116.562C545.289 116.092 541.529 115.812 537.769 115.622C533.729 115.342 529.779 115.152 525.649 114.962H524.429C515.519 114.722 506.259 114.692 497.359 115.062C496.877 115.062 496.396 115.085 495.926 115.108C495.479 115.13 495.044 115.152 494.629 115.152C484.359 115.622 474.179 116.382 464.179 117.692C464.052 117.631 463.924 117.652 463.8 117.672C463.739 117.682 463.679 117.692 463.619 117.692C459.479 118.162 455.399 118.722 451.399 119.382C451.175 119.372 450.951 119.406 450.739 119.482C448.669 119.732 446.509 120.102 444.439 120.482C439.739 121.212 435.039 122.212 430.339 123.212C425.929 124.052 421.599 124.992 417.279 126.122C412.579 127.228 407.879 128.448 403.179 129.782C402.899 129.882 402.619 129.972 402.239 130.072C395.099 132.092 387.999 134.432 380.999 136.832C365.742 142.873 352.698 153.437 343.619 167.106C334.54 180.775 329.861 196.895 330.209 213.301C330.396 220.723 331.567 228.087 333.689 235.201C350.709 281.231 345.439 334.15 321.369 376.72C320.629 378.032 319.697 379.438 318.715 380.919C318.41 381.379 318.1 381.846 317.789 382.32C304.68 402.315 294.573 424.123 287.789 447.05C287.578 447.566 287.421 448.102 287.319 448.65C286.793 450.355 286.384 452.021 285.96 453.748C285.708 454.776 285.45 455.827 285.159 456.92C284.612 458.974 284.174 461.063 283.733 463.163C283.545 464.057 283.356 464.953 283.159 465.85C282.499 468.85 281.929 471.85 281.559 474.85C281.161 476.643 280.91 478.466 280.809 480.3C280.429 482.18 280.239 484.06 280.049 485.94C279.797 487.495 279.643 489.065 279.589 490.64C279.333 492.54 279.176 494.453 279.119 496.37C278.928 498.18 278.831 499.999 278.829 501.819C278.186 514.839 278.691 527.889 280.339 540.819C280.739 544.599 281.379 548.339 282.029 552.099C282.005 552.261 282.037 552.427 282.119 552.569C283.326 559.967 284.996 567.281 287.119 574.469C287.969 577.759 288.909 581.049 290.039 584.339C290.235 585.139 290.486 585.924 290.789 586.689C291.539 588.939 292.289 591.099 293.139 593.269C293.291 593.677 293.442 594.091 293.595 594.507C294.107 595.907 294.631 597.34 295.209 598.719C297.649 604.949 300.479 611.029 303.479 616.949C305.729 621.449 308.029 625.659 310.619 630.019C312.409 633.129 314.189 636.129 316.259 639.129C320.522 645.814 325.167 652.248 330.169 658.399C332.619 661.479 335.149 664.489 337.879 667.398C349.729 680.758 363.104 692.682 377.729 702.928C380.169 704.718 382.709 706.408 385.249 708.008C385.344 708.103 385.462 708.173 385.579 708.243C385.697 708.313 385.814 708.383 385.909 708.478C388.543 710.172 391.173 711.768 393.799 713.268C399.489 716.668 405.449 719.858 411.379 722.668C414.099 723.982 416.826 725.205 419.559 726.338C425.539 728.968 431.549 731.288 437.699 733.288C454.017 738.836 470.918 742.494 488.069 744.188C490.419 744.478 492.869 744.658 495.219 744.758C504.505 745.491 513.828 745.615 523.129 745.128H524.449C527.269 744.948 530.179 744.758 532.999 744.478C547.766 743.19 562.37 740.451 576.599 736.298C586.354 733.564 595.901 730.139 605.169 726.048C609.169 724.318 613.169 722.388 617.169 720.318C620.137 718.982 623.025 717.476 625.819 715.808C628.639 714.208 631.459 712.608 634.279 710.918C641.599 705.618 651.809 714.108 647.999 722.288C644.78 731.173 642.586 740.396 641.459 749.778C640.861 754.647 640.617 759.553 640.729 764.458C640.785 766.205 640.876 767.952 640.968 769.7C641.138 772.952 641.308 776.205 641.249 779.458V779.748C640.99 789.228 639.015 798.582 635.419 807.358C632.431 814.695 628.389 821.557 623.419 827.728C618.61 833.746 612.958 839.04 606.639 843.448C603.458 845.664 600.115 847.639 596.639 849.357C593.212 851.211 589.585 852.67 585.829 853.707C573.637 856.377 561.309 858.38 548.899 859.707L539.779 860.557C539.493 860.543 539.206 860.573 538.929 860.647C501.578 863.394 464.027 860.256 427.649 851.347C403.423 845.334 379.914 836.731 357.529 825.688C357.397 825.64 357.264 825.573 357.132 825.505C356.984 825.43 356.837 825.355 356.689 825.308C339.417 816.659 322.853 806.665 307.149 795.418C299.729 789.978 292.629 784.338 285.629 778.418C283.996 777.164 282.428 775.829 280.929 774.418C278.209 772.088 275.479 769.618 272.849 767.088L272.469 766.708C243.77 739.791 219.841 708.203 201.699 673.288C201.646 673.236 201.622 673.186 201.597 673.136C201.574 673.091 201.552 673.046 201.509 672.998C194.707 659.871 188.748 646.324 183.669 632.439C181.979 628.019 180.479 623.509 179.069 619.089C178.91 618.693 178.783 618.285 178.689 617.869C177.189 613.169 175.779 608.469 174.459 603.679C171.429 592.019 168.739 580.089 166.849 568.149C166.469 566.179 166.189 564.229 165.999 562.229C165.543 559.87 165.229 557.486 165.059 555.089C164.689 552.549 164.399 549.919 164.219 547.289C163.856 545.207 163.636 543.102 163.559 540.989C163.279 537.979 163.089 534.969 162.989 531.869C162.312 521.701 162.155 511.504 162.519 501.319C162.519 499.16 162.619 497.099 162.809 494.93C162.796 494.208 162.826 493.487 162.899 492.77C162.989 490.23 163.179 487.6 163.369 485.06C163.351 484.747 163.381 484.433 163.459 484.13C163.939 477.32 164.729 470.74 165.629 464.01C165.704 463.19 165.827 462.375 165.999 461.57C170.92 427.051 181.059 393.482 196.069 362.01C196.249 361.792 196.376 361.536 196.439 361.26C199.079 355.627 201.899 350.08 204.899 344.62C206.309 341.9 207.909 339.17 209.509 336.45C210.723 334.214 212.048 332.078 213.389 329.92C213.882 329.125 214.377 328.327 214.869 327.52C223.399 311.571 228.189 293.631 225.499 275.461C224.076 268.774 222.05 262.239 220.025 255.708C216.656 244.844 213.29 233.99 212.709 222.461C212.684 221.951 212.658 221.44 212.632 220.929C212.355 215.44 212.077 209.951 212.159 204.461C212.272 197.123 212.806 189.798 213.759 182.521C215.297 169.653 218.258 156.996 222.589 144.782C224.489 139.592 226.689 134.592 228.909 129.592L230.319 126.392C233.853 118.498 238.038 110.912 242.829 103.712C254.861 85.4136 270.023 69.3785 287.619 56.342C293.356 52.0627 299.369 48.1676 305.619 44.6821C316.102 38.9855 327.02 34.1271 338.269 30.1522C349.569 26.0622 361.089 22.6122 372.639 19.3122C385.129 15.7523 397.719 12.6623 410.459 10.1423C449.712 2.12247 489.785 -1.16096 529.819 0.362341C530.637 0.345733 531.455 0.379129 532.269 0.46234C537.899 0.642339 543.629 0.932337 549.269 1.39233C549.991 1.37776 550.712 1.41117 551.429 1.49233C558.499 2.03233 565.669 2.69233 572.669 3.56232C576.899 4.03232 581.129 4.59232 585.269 5.25231C597.209 6.9223 608.999 8.94229 620.669 11.6423C628.789 13.3323 636.779 15.2123 644.669 17.4722C707.452 34.1263 766.428 62.7467 818.359 101.762C828.339 109.042 837.819 116.782 847.119 124.882C865.957 141.214 883.581 158.898 899.849 177.791C901.67 179.813 903.348 181.84 905.05 183.898C905.723 184.711 906.399 185.528 907.089 186.351C909.529 189.261 911.879 192.171 914.229 195.091C921.569 204.651 928.769 214.221 935.569 224.221C936.179 225.161 936.789 226.078 937.398 226.995C938.009 227.913 938.619 228.831 939.229 229.771C942.849 235.161 946.549 240.981 949.849 246.501C951.639 249.411 953.429 252.331 955.119 255.331C958.559 261.191 961.819 267.061 964.889 273.001C981.568 304.443 994.866 337.564 1004.56 371.81C1007.92 383.47 1010.73 395.21 1013.2 407.05C1013.48 408.18 1013.67 409.22 1013.86 410.34C1018.64 433.454 1021.68 456.892 1022.98 480.46C1023.15 482.247 1023.21 484.07 1023.28 485.884C1023.33 487.124 1023.37 488.361 1023.45 489.58C1023.64 492.573 1023.73 495.676 1023.82 498.769ZM858.029 562.789C857.369 567.399 856.619 572.009 855.679 576.609C855.662 576.723 855.645 576.838 855.628 576.956C855.545 577.521 855.457 578.128 855.299 578.749C849.737 607.814 840.416 636.03 827.569 662.689C823.599 671.208 819.289 679.408 814.509 687.498C813.443 689.439 812.275 691.335 811.118 693.213C810.648 693.977 810.179 694.738 809.719 695.498C809.624 695.638 809.529 695.803 809.434 695.968C809.339 696.133 809.244 696.298 809.149 696.438L808.869 696.998C805.187 703.144 802.43 709.799 800.689 716.748C800.289 717.978 799.979 719.228 799.689 720.478C798.922 723.918 798.387 727.406 798.089 730.918C797.281 739.261 797.917 747.681 799.969 755.808C801.068 759.958 802.474 764.011 803.879 768.065C805.16 771.758 806.44 775.452 807.489 779.218C808.705 783.626 809.634 788.109 810.269 792.638C812.551 809.681 812.467 826.957 810.019 843.977C809.939 844.597 809.849 845.218 809.749 845.838C802.757 891.207 779.362 932.435 743.999 961.707C736.589 967.865 728.697 973.419 720.399 978.317C716.799 980.544 713.065 982.548 709.219 984.317C705.093 986.083 700.949 987.787 696.789 989.427C687.819 992.977 678.729 996.247 669.569 999.247C660.409 1002.25 651.149 1004.92 641.819 1007.42C632.489 1009.92 623.089 1012.03 613.629 1013.92C604.169 1015.81 594.629 1017.44 585.079 1018.81C575.053 1020.24 564.999 1021.38 554.919 1022.24C544.826 1023.08 534.716 1023.63 524.589 1023.87C514.463 1024.11 504.339 1024.02 494.219 1023.62C493.405 1023.63 492.59 1023.6 491.779 1023.53C486.149 1023.34 480.419 1023.06 474.779 1022.59C474.058 1022.6 473.337 1022.57 472.619 1022.5C465.549 1021.96 458.419 1021.29 451.369 1020.43C447.139 1019.96 442.909 1019.39 438.779 1018.74C426.779 1017.07 415.089 1015.06 403.349 1012.35C395.229 1010.65 387.239 1008.77 379.349 1006.52C350.168 998.843 321.758 988.492 294.479 975.597C292.599 974.747 290.719 973.807 288.839 972.867C287.191 972.106 285.547 971.305 283.932 970.518C283.147 970.136 282.368 969.756 281.599 969.387C262.317 959.608 243.67 948.622 225.769 936.497C224.8 935.845 223.85 935.179 222.909 934.52C221.657 933.642 220.423 932.777 219.189 931.977C217.029 930.577 214.869 929.067 212.799 927.467C210.449 925.777 208.009 923.997 205.659 922.207C203.558 920.68 201.461 919.071 199.366 917.462C198.36 916.691 197.355 915.919 196.349 915.157C192.399 912.057 188.459 908.857 184.599 905.567C178.869 900.907 173.319 895.987 167.779 890.907C164.579 888.087 161.479 885.167 158.379 882.167C146.669 871.017 135.439 859.217 124.919 847.018C122.179 843.918 119.549 840.807 116.919 837.618C106.559 824.948 96.6293 811.918 87.4993 798.238C80.8093 788.628 74.8293 778.728 68.8893 768.628C62.8693 757.918 56.7793 747.048 51.4993 735.918C42.1238 716.635 33.9319 696.798 26.9693 676.518C26.9826 676.388 26.9508 676.258 26.8793 676.148C24.1926 668.162 21.7159 660.139 19.4493 652.079C16.1193 640.509 13.2993 628.739 10.8093 616.929C5.67933 592.748 2.40976 568.21 1.02926 543.529C0.749259 540.519 0.649259 537.509 0.559259 534.409C-0.230741 519.059 -0.140741 503.699 0.559259 488.35C0.559259 487.13 0.649259 485.91 0.749259 484.69C0.933194 479.944 1.2687 475.231 1.60841 470.459C1.73043 468.745 1.85298 467.023 1.96926 465.29C2.24926 461.44 2.62926 457.68 3.09926 453.92C5.21119 434.47 8.50731 415.168 12.9693 396.12C14.5093 389.4 16.0393 382.74 18.0393 376.19C19.3688 371.201 20.8674 366.325 22.3709 361.432C23.0613 359.186 23.7527 356.936 24.4293 354.67C28.6393 341.91 33.1193 329.15 38.3393 316.791C51.4903 284.735 67.9104 254.12 87.3393 225.431C87.5955 225.098 87.8359 224.736 88.0848 224.361C88.3217 224.005 88.5662 223.637 88.8393 223.271C91.125 219.977 93.4108 216.757 95.6966 213.536C95.9508 213.178 96.205 212.819 96.4593 212.461C99.8523 207.543 103.61 202.779 107.365 198.018C109.099 195.82 110.833 193.623 112.529 191.411C113.585 190.144 114.639 188.874 115.694 187.603C121.356 180.785 127.029 173.952 132.929 167.411C137.159 162.811 141.379 158.301 145.709 153.971C146.345 153.201 147.037 152.479 147.779 151.811C147.89 151.636 148.055 151.503 148.249 151.431C154.659 146.691 164.419 153.061 162.529 160.931C162.414 161.679 162.192 162.407 161.869 163.091C154.445 187.275 154.714 213.167 162.639 237.191C163.021 238.306 163.421 239.412 163.822 240.518C164.481 242.341 165.141 244.165 165.719 246.031C166.489 248.481 167.119 250.971 167.649 253.481C170.184 265.642 170.841 278.12 169.599 290.481C168.502 302.529 165.547 314.335 160.839 325.48C160.644 326.038 160.393 326.574 160.089 327.08C158.019 330.93 156.049 334.88 154.169 338.83C153.988 339.049 153.858 339.305 153.789 339.58C151.917 343.452 150.144 347.372 148.335 351.373C148.154 351.774 147.972 352.177 147.789 352.58C147.737 352.68 147.712 352.778 147.687 352.875C147.664 352.963 147.642 353.05 147.599 353.14C141.671 366.475 136.584 380.169 132.369 394.14C131.339 397.34 130.399 400.44 129.549 403.63C128.239 408.05 127.069 412.37 126.069 416.89C125.129 420.65 124.189 424.5 123.439 428.35C121.559 436.72 120.059 445.08 118.929 453.64C118.179 458.34 117.519 463.13 117.049 467.92C116.489 472.34 116.109 476.76 115.739 481.27C115.717 482.056 115.653 482.84 115.549 483.62C114.614 497.446 114.394 511.311 114.889 525.159C115.089 533.479 115.649 541.949 116.489 550.259C116.679 552.979 116.959 555.799 117.329 558.529C117.349 558.941 117.413 559.35 117.519 559.749C118.609 569.569 120.159 579.169 122.029 588.749C123.619 596.679 125.389 604.559 127.389 612.429C133.469 635.575 141.615 658.129 151.729 679.818C151.85 680.167 152.008 680.503 152.199 680.818C158.148 693.582 164.801 706.004 172.129 718.028C172.222 718.17 172.291 718.309 172.359 718.446C172.431 718.591 172.502 718.735 172.599 718.878C174.849 722.548 177.199 726.208 179.649 729.778C182.02 733.528 184.485 737.09 186.952 740.655L187.169 740.968C187.208 741.007 187.249 741.065 187.297 741.133C187.361 741.222 187.437 741.33 187.539 741.438C199.019 757.759 211.779 773.141 225.699 787.438C227.959 789.828 230.209 792.178 232.559 794.438C234.539 796.498 236.609 798.438 238.769 800.438C251.549 812.565 265.111 823.839 279.369 834.188C284.229 837.674 289.159 841.051 294.159 844.318C297.848 846.768 301.562 849.035 305.323 851.332C305.691 851.557 306.06 851.782 306.429 852.007C307.252 852.51 308.076 853.02 308.902 853.531C312.23 855.59 315.59 857.669 319.059 859.407C327.259 863.997 335.629 868.257 344.139 872.257C352.649 876.257 361.329 879.947 370.089 883.257C378.849 886.567 387.759 889.497 396.689 892.257C397.87 892.612 399.06 892.935 400.25 893.257C401.44 893.58 402.63 893.902 403.809 894.257C406.909 895.207 410.019 896.047 413.209 896.797C441.016 903.938 469.517 908.035 498.209 909.017H499.429C508.339 909.267 517.599 909.287 526.499 908.927C526.969 908.927 527.417 908.902 527.864 908.877C528.312 908.852 528.759 908.827 529.229 908.827C539.489 908.367 549.679 907.597 559.679 906.297C559.806 906.357 559.927 906.337 560.051 906.317C560.113 906.307 560.176 906.297 560.239 906.297C564.379 905.827 568.459 905.257 572.459 904.597C572.683 904.618 572.909 904.587 573.119 904.507C575.141 904.273 577.083 903.925 579.021 903.578L579.419 903.507C595.065 900.877 610.534 897.287 625.739 892.757C634.109 890.367 642.459 887.757 650.209 883.757C663.571 876.886 674.733 866.4 682.424 853.493C690.115 840.587 694.025 825.779 693.709 810.758C693.522 803.336 692.352 795.972 690.229 788.858C687.49 781.279 685.3 773.512 683.679 765.618C680.298 749.06 679.411 732.089 681.049 715.268C682.639 698.888 686.239 682.438 693.129 667.438C693.856 665.892 694.593 664.349 695.339 662.809L701.599 649.869C703.245 646.534 705.067 643.289 707.059 640.149C711.932 632.637 716.385 624.862 720.399 616.859C721.429 615.069 722.279 613.189 723.129 611.31L723.129 611.309C727.325 602.473 730.933 593.37 733.929 584.059C734.899 581.38 735.717 578.649 736.379 575.879C737.219 573.059 737.979 570.239 738.629 567.329C738.738 567.125 738.803 566.9 738.819 566.669C739.543 564.035 740.099 561.233 740.64 558.507L740.699 558.209C740.794 557.644 740.912 557.079 741.029 556.514C741.147 555.949 741.264 555.384 741.359 554.819C742.399 549.249 743.259 543.549 743.799 537.819C744.05 536.391 744.207 534.948 744.269 533.499C744.459 531.579 744.649 529.579 744.739 527.579C744.931 525.829 745.027 524.07 745.029 522.309C745.693 509.414 745.188 496.484 743.519 483.68C743.368 481.821 743.118 479.972 742.769 478.14C742.615 476.46 742.365 474.791 742.019 473.14C741.449 469.47 740.799 465.9 739.949 462.33C739.466 459.697 738.838 457.093 738.069 454.53C737.96 453.83 737.803 453.138 737.599 452.46C737.129 450.58 736.569 448.7 735.999 446.82C735.339 444.28 734.589 441.75 733.749 439.21C733.685 438.965 733.583 438.725 733.471 438.46C733.409 438.312 733.344 438.157 733.279 437.99C732.519 435.54 731.679 433.1 730.739 430.75C730.348 429.636 729.926 428.554 729.509 427.487C729.222 426.753 728.938 426.026 728.669 425.3C726.339 419.56 723.829 413.72 720.959 408.19L720.399 407.06C719.721 405.623 718.968 404.234 718.222 402.857C717.945 402.347 717.67 401.838 717.399 401.33C716.111 398.71 714.668 396.169 713.079 393.72C711.249 390.32 709.209 387.08 707.079 383.94C699.256 371.919 690.287 360.684 680.299 350.39L680.077 350.155C678.642 348.633 677.211 347.117 675.689 345.69C673.619 343.64 671.559 341.69 669.389 339.69C669.181 339.562 668.992 339.403 668.829 339.22C660.949 332.047 652.561 325.453 643.729 319.49C641.289 317.69 638.749 316.001 636.219 314.491C633.869 312.991 631.519 311.491 629.069 310.171C627.189 309.041 625.309 307.921 623.429 306.971C621.209 305.657 618.876 304.437 616.429 303.311L616.088 303.132C614.252 302.172 612.559 301.286 610.609 300.401C608.539 299.461 606.469 298.521 604.399 297.671C602.212 296.712 600.073 295.853 597.916 294.987C597.104 294.661 596.29 294.334 595.469 294.001C592.469 292.781 589.359 291.711 586.259 290.711C580.439 288.651 574.419 286.951 568.309 285.451C567.55 285.217 566.686 285.046 565.875 284.885C565.714 284.854 565.555 284.822 565.399 284.791C555.658 282.435 545.764 280.765 535.789 279.791C533.529 279.511 531.279 279.321 529.019 279.231C519.641 278.499 510.224 278.372 500.829 278.851H499.509C496.029 279.041 492.559 279.321 489.169 279.701C487.437 279.793 485.711 279.98 483.999 280.261C474.426 281.343 464.935 283.06 455.589 285.401C453.049 286.001 450.609 286.651 448.259 287.401C438.214 290.204 428.382 293.723 418.839 297.931C414.731 299.609 410.724 301.526 406.839 303.671C404.099 304.891 401.469 306.301 398.839 307.801C395.719 309.491 392.629 311.281 389.719 313.061C382.389 318.361 372.189 309.881 375.999 301.691C377.119 298.591 378.119 295.451 378.999 292.271C381.667 282.768 383.135 272.968 383.369 263.101V259.101C383.369 258.101 383.359 256.981 383.309 256.101C383.27 255.404 383.205 254.719 383.14 254.032C383.123 253.852 383.106 253.671 383.089 253.491C382.949 251.971 382.819 250.441 382.819 248.911C382.594 239.859 383.875 230.833 386.609 222.201C389.19 213.945 393.12 206.174 398.239 199.201C408.176 185.575 422.155 175.427 438.189 170.201C444.949 168.701 451.809 167.351 458.669 166.351C464.219 165.501 469.669 164.841 475.119 164.181L484.239 163.341C484.516 163.267 484.803 163.236 485.089 163.251C542.589 158.952 600.267 168.792 653.089 191.911C686.626 206.675 717.593 226.697 744.819 251.221C761.736 266.119 777.077 282.716 790.599 300.751C793.599 304.591 796.419 308.591 799.239 312.591C799.339 312.591 799.429 312.691 799.429 312.881C801.909 316.401 804.169 319.83 806.429 323.4C812.215 332.191 817.516 341.291 822.309 350.66C822.399 350.75 822.499 350.85 822.499 350.94C831.321 367.936 838.71 385.637 844.589 403.86C844.677 404.125 844.767 404.393 844.857 404.661C845.118 405.436 845.381 406.217 845.589 406.96C848.119 414.83 850.289 422.74 852.169 430.83L852.188 430.899C852.462 431.915 852.733 432.925 852.919 434.03C853.693 437.13 854.359 440.326 854.919 443.62C855.273 444.851 855.527 446.108 855.679 447.38C856.239 450.19 856.709 453.01 857.179 455.83C857.562 457.791 857.846 459.77 858.029 461.76C858.48 464.12 858.794 466.504 858.969 468.9C859.339 471.44 859.619 473.97 859.809 476.51C860.173 478.75 860.393 481.011 860.469 483.28C860.749 486.1 860.939 488.92 861.029 491.829C861.711 502.061 861.868 512.321 861.499 522.569C861.499 524.159 861.409 525.759 861.319 527.359C861.219 530.559 861.029 533.749 860.749 536.949C860.249 544.629 859.559 552.109 858.399 559.689C858.385 560.29 858.322 560.889 858.209 561.479C858.164 561.714 858.142 561.924 858.119 562.134C858.097 562.344 858.074 562.554 858.029 562.789Z" fill="url(#paint0_linear_2904_52488)"/>
<defs>
<linearGradient id="paint0_linear_2904_52488" x1="107.429" y1="205.738" x2="918.881" y2="834.311" gradientUnits="userSpaceOnUse">
<stop stop-color="#1896ED"/>
<stop offset="0.244792" stop-color="#0EBAED"/>
<stop offset="0.630208" stop-color="#02E8EE"/>
<stop offset="1" stop-color="#17FFD2"/>
</linearGradient>
</defs>
</svg>
