<svg width="20" height="20" viewBox="0 0 20 20" fill="none" xmlns="http://www.w3.org/2000/svg">
<g clip-path="url(#clip0_3831_53064)">
<path d="M11.0739 1.1699L11.0739 1.16991L11.7452 1.96224L11.7452 1.96225C11.9643 2.2209 12.3108 2.33349 12.6401 2.25304C12.6401 2.25304 12.6402 2.25304 12.6402 2.25304L13.6489 2.0066L13.7676 2.49232L13.6489 2.0066C14.7862 1.72879 15.9007 2.53861 15.988 3.70596L15.988 3.70605L16.0653 4.74159C16.0653 4.74161 16.0653 4.74163 16.0653 4.74165C16.0906 5.07972 16.3048 5.37443 16.6184 5.50289L17.5794 5.89649C17.5794 5.89649 17.5794 5.89649 17.5794 5.89649C18.6628 6.34019 19.0886 7.65046 18.4729 8.64621L17.9268 9.52946C17.9268 9.52946 17.9268 9.52947 17.9268 9.52947C17.7485 9.81784 17.7485 10.1822 17.9268 10.4705C17.9268 10.4705 17.9268 10.4705 17.9268 10.4705L18.4729 11.3538C19.0885 12.3495 18.6628 13.6598 17.5794 14.1035L16.6184 14.4971C16.3048 14.6256 16.0906 14.9203 16.0653 15.2583C16.0653 15.2583 16.0653 15.2584 16.0653 15.2584L15.988 16.2939L15.988 16.294C15.9007 17.4614 14.7862 18.2712 13.649 17.9934C13.649 17.9934 13.6489 17.9934 13.6489 17.9934L12.6402 17.747L12.6401 17.747C12.3108 17.6665 11.9643 17.7791 11.7452 18.0377L11.0739 18.8301L11.0739 18.8301C10.317 19.7233 8.93943 19.7233 8.18262 18.8301L8.18258 18.8301L7.51135 18.0377C7.51134 18.0377 7.51133 18.0377 7.51132 18.0377C7.29214 17.779 6.94572 17.6665 6.61645 17.747L6.61636 17.747L5.60757 17.9934C5.60757 17.9934 5.60756 17.9934 5.60756 17.9934C4.47029 18.2712 3.35574 17.4614 3.26853 16.2939L3.19117 15.2584C3.19117 15.2584 3.19117 15.2584 3.19117 15.2583C3.1659 14.9204 2.95176 14.6256 2.63805 14.4971C2.63805 14.4971 2.63805 14.4971 2.63804 14.4971M11.0739 1.1699L2.82756 14.0344L2.63804 14.4971M11.0739 1.1699C10.317 0.276701 8.93943 0.276701 8.18262 1.1699L8.18259 1.16992L7.51135 1.96223M11.0739 1.1699L7.51135 1.96223M2.63804 14.4971L1.67707 14.1035L2.63804 14.4971ZM1.32973 10.4705L0.783632 11.3537L0.783623 11.3538C0.167985 12.3495 0.593684 13.6598 1.67706 14.1035L1.2089 11.6167L1.75502 10.7335M1.32973 10.4705L1.75502 10.7335M1.32973 10.4705L1.32974 10.4705L1.75502 10.7335M1.32973 10.4705C1.50802 10.1822 1.50802 9.81784 1.32973 9.52946M1.75502 10.7335C2.03292 10.284 2.03292 9.71604 1.75502 9.26653M1.75502 9.26653L1.32974 9.52947L1.32973 9.52946M1.75502 9.26653L1.32973 9.52946M1.75502 9.26653L1.67707 5.89649M1.32973 9.52946L0.783628 8.64621L0.783626 8.64621C0.167977 7.65046 0.593693 6.34018 1.67707 5.89649M1.67707 5.89649L1.67706 5.8965L1.86656 6.35919L1.67707 5.89649ZM1.67707 5.89649L2.63805 5.5029M1.67707 5.89649L2.63805 5.5029M7.51135 1.96223C7.51134 1.96224 7.51134 1.96225 7.51133 1.96226C7.29216 2.22091 6.9457 2.33348 6.61638 2.25304C6.61637 2.25304 6.61637 2.25304 6.61636 2.25304L5.60758 2.0066L5.60757 2.0066M7.51135 1.96223L5.60757 2.0066M5.60757 2.0066C4.47032 1.7288 3.35575 2.53857 3.26853 3.70602L3.26853 3.70602M5.60757 2.0066L3.26853 3.70602M3.26853 3.70602L3.19117 4.74161M3.26853 3.70602L3.19117 4.74161M2.63805 5.5029L2.63806 5.50289C2.95175 5.37442 3.1659 5.07968 3.19117 4.74162L3.68978 4.77887M2.63805 5.5029L2.82756 5.96559C3.31658 5.76531 3.6504 5.30584 3.68978 4.77887M3.68978 4.77887L3.19117 4.74161M3.68978 4.77887L3.76714 3.74327L3.19117 4.74161" fill="black" stroke="white"/>
<path d="M6.10389 10.0365L9.21368 13.9037C9.23866 13.9342 9.27025 13.9586 9.30607 13.9751C9.34189 13.9916 9.38098 13.9997 9.4204 13.9988H11.1616C11.2049 14.0033 11.2486 13.9952 11.2873 13.9755C11.3261 13.9557 11.3583 13.9251 11.38 13.8874C11.4017 13.8497 11.4121 13.8065 11.4097 13.7631C11.4074 13.7196 11.3925 13.6778 11.3668 13.6427L8.47132 10.0365C8.4004 9.94866 8.3635 9.83825 8.36738 9.72546C8.37126 9.61267 8.41567 9.50506 8.49244 9.42234L11.3125 6.36989C11.3422 6.33578 11.3608 6.29347 11.3659 6.24854C11.371 6.20362 11.3624 6.15821 11.3411 6.11831C11.3199 6.07841 11.287 6.0459 11.2469 6.02508C11.2067 6.00426 11.1612 5.99612 11.1164 6.00172H9.40983C9.37317 6.00118 9.33679 6.00827 9.30302 6.02256C9.26925 6.03685 9.23882 6.05802 9.21368 6.08471L6.12502 9.42083C6.04842 9.50394 6.00415 9.61177 6.00028 9.72473C5.9964 9.83769 6.03317 9.94829 6.10389 10.0365Z" fill="white"/>
</g>
<defs>
<clipPath id="clip0_3831_53064">
<rect width="20" height="20" fill="white"/>
</clipPath>
</defs>
</svg>
