<svg width="18" height="18" viewBox="0 0 18 18" fill="none" xmlns="http://www.w3.org/2000/svg">
  <path fill-rule="evenodd" clip-rule="evenodd" d="M9.69239 0.493125C9.13528 -0.164375 8.1212 -0.164375 7.56409 0.493125L6.89283 1.28546C6.5512 1.68866 6.0111 1.86416 5.49772 1.73876L4.48892 1.49232C3.65178 1.28783 2.83134 1.88391 2.76714 2.74327L2.68978 3.77887C2.6504 4.30584 2.31658 4.76531 1.82756 4.96559L0.866565 5.35919C0.0691006 5.68579 -0.24428 6.65029 0.208905 7.38327L0.755017 8.26653C1.03292 8.71604 1.03292 9.28396 0.755017 9.73347L0.208905 10.6167C-0.24428 11.3497 0.0691006 12.3142 0.866565 12.6408L1.82756 13.0344C2.31658 13.2347 2.6504 13.6942 2.68978 14.2211L2.76714 15.2567C2.83134 16.1161 3.65178 16.7122 4.48892 16.5077L5.49772 16.2613C6.0111 16.1358 6.5512 16.3113 6.89283 16.7145L7.56409 17.5069C8.1212 18.1644 9.13528 18.1644 9.69239 17.5069L10.3637 16.7145C10.7053 16.3113 11.2454 16.1358 11.7588 16.2613L12.7676 16.5077C13.6047 16.7122 14.4251 16.1161 14.4894 15.2567L14.5667 14.2211C14.6061 13.6942 14.9399 13.2347 15.4289 13.0344L16.3899 12.6408C17.1874 12.3142 17.5008 11.3497 17.0476 10.6167L16.5015 9.73347C16.2236 9.28396 16.2236 8.71604 16.5015 8.26653L17.0476 7.38327C17.5008 6.65029 17.1874 5.68579 16.3899 5.35919L15.4289 4.96559C14.9399 4.76531 14.6061 4.30584 14.5667 3.77887L14.4894 2.74327C14.4251 1.88391 13.6047 1.28783 12.7676 1.49232L11.7588 1.73876C11.2454 1.86416 10.7053 1.68866 10.3637 1.28546L9.69239 0.493125ZM8.21368 12.9037L5.10389 9.03645C5.03317 8.94829 4.9964 8.83769 5.00028 8.72473C5.00415 8.61177 5.04842 8.50394 5.12502 8.42083L8.21368 5.08471C8.23882 5.05802 8.26925 5.03685 8.30302 5.02256C8.33679 5.00827 8.37317 5.00118 8.40983 5.00172H10.1164C10.1612 4.99612 10.2067 5.00426 10.2469 5.02508C10.287 5.0459 10.3199 5.07841 10.3411 5.11831C10.3624 5.15821 10.371 5.20362 10.3659 5.24854C10.3608 5.29347 10.3422 5.33578 10.3125 5.36989L7.49244 8.42234C7.41567 8.50506 7.37126 8.61267 7.36738 8.72546C7.3635 8.83825 7.4004 8.94866 7.47132 9.03645L10.3668 12.6427C10.3925 12.6778 10.4074 12.7196 10.4097 12.7631C10.4121 12.8065 10.4017 12.8497 10.38 12.8874C10.3583 12.9251 10.3261 12.9557 10.2873 12.9755C10.2486 12.9952 10.2049 13.0033 10.1616 12.9988H8.4204C8.38098 12.9997 8.34189 12.9916 8.30607 12.9751C8.27025 12.9586 8.23866 12.9342 8.21368 12.9037Z" fill="black"/>
</svg>
