<svg width="20" height="20" viewBox="0 0 20 20" fill="none" xmlns="http://www.w3.org/2000/svg">
<rect width="20" height="20" rx="10" fill="white"/>
<path d="M9.91413 12.5714C12.2713 12.5714 14.1998 10.6429 14.1998 8.28571C14.1998 7.3 13.8998 6.44286 13.3427 5.71429C13.857 5.32857 14.1998 4.68571 14.1998 4H9.91413C7.55699 4 5.62842 5.92857 5.62842 8.28571C5.62842 10.6429 7.55699 12.5714 9.91413 12.5714ZM9.91413 5.97143C11.1998 5.97143 12.2284 7 12.2284 8.28571C12.2284 9.57143 11.1998 10.6 9.91413 10.6C8.62842 10.6 7.59985 9.57143 7.59985 8.28571C7.59985 7 8.62842 5.97143 9.91413 5.97143Z" fill="#00DF9B"/>
<path d="M15.2285 13.7287C14.9713 13.0859 14.4571 12.6144 13.7713 12.4001C12.6571 13.4716 11.1999 14.0287 9.78563 14.0287C8.32849 14.0287 6.9142 13.4716 5.79992 12.4001C5.1142 12.6144 4.59992 13.0859 4.34277 13.7287C5.79992 15.2287 7.77135 16.0001 9.74277 16.0001C11.7142 16.0001 13.6856 15.2287 15.2285 13.7287Z" fill="#2471FE"/>
</svg>
