<svg xmlns="http://www.w3.org/2000/svg" viewBox="0 0 20 20"><defs><style>.cls-1,.cls-3{fill-rule:evenodd;}.cls-2,.cls-3{fill:#fff;}</style></defs><path class="cls-1" d="M10,19.38a1.88,1.88,0,0,1-1.43-.66l-.66-.78a.85.85,0,0,0-.66-.31l-.21,0-1,.24a1.74,1.74,0,0,1-.45.06,1.87,1.87,0,0,1-1.86-1.73l-.08-1a.87.87,0,0,0-.54-.75l-.94-.38a1.91,1.91,0,0,1-1.08-1.16,1.87,1.87,0,0,1,.19-1.56l.54-.87a.89.89,0,0,0,0-.92l-.54-.87a1.86,1.86,0,0,1-.19-1.56A1.92,1.92,0,0,1,2.2,6l.94-.39a.86.86,0,0,0,.54-.74l.08-1A1.87,1.87,0,0,1,5.62,2.1a1.73,1.73,0,0,1,.45,0l1,.24a.76.76,0,0,0,.21,0,.88.88,0,0,0,.66-.31l.66-.78a1.88,1.88,0,0,1,2.86,0l.66.78a.9.9,0,0,0,.67.31.64.64,0,0,0,.2,0l1-.24a1.61,1.61,0,0,1,.44,0,1.88,1.88,0,0,1,1.87,1.73l.07,1a.9.9,0,0,0,.54.74l1,.39a1.86,1.86,0,0,1,.88,2.71l-.53.87a.85.85,0,0,0,0,.92l.53.87a1.88,1.88,0,0,1-.88,2.72l-1,.38a.91.91,0,0,0-.54.75l-.07,1A1.88,1.88,0,0,1,14.42,18a1.61,1.61,0,0,1-.44-.06l-1-.24-.2,0a.87.87,0,0,0-.67.31l-.66.78A1.88,1.88,0,0,1,10,19.38Z"/><path class="cls-2" d="M10,1.17a1.37,1.37,0,0,1,1.05.48l.66.78a1.38,1.38,0,0,0,1,.49,1.75,1.75,0,0,0,.32,0l1-.24a1.22,1.22,0,0,1,.32,0,1.37,1.37,0,0,1,1.37,1.27l.08,1a1.34,1.34,0,0,0,.84,1.17l.95.39a1.38,1.38,0,0,1,.65,2l-.54.87a1.38,1.38,0,0,0,0,1.44l.54.87a1.38,1.38,0,0,1-.65,2l-.95.39a1.36,1.36,0,0,0-.84,1.17l-.08,1a1.38,1.38,0,0,1-1.37,1.27,1.22,1.22,0,0,1-.32,0l-1-.24a1.17,1.17,0,0,0-.32,0,1.37,1.37,0,0,0-1,.48l-.66.78a1.36,1.36,0,0,1-2.09,0l-.67-.78a1.35,1.35,0,0,0-1-.48,1.24,1.24,0,0,0-.33,0l-1,.24a1.24,1.24,0,0,1-.33,0,1.36,1.36,0,0,1-1.36-1.27l-.08-1A1.38,1.38,0,0,0,3.33,14l-.94-.39a1.37,1.37,0,0,1-.65-2l.54-.87a1.38,1.38,0,0,0,0-1.44l-.54-.87a1.37,1.37,0,0,1,.65-2l.94-.39a1.37,1.37,0,0,0,.85-1.17l.08-1A1.36,1.36,0,0,1,5.62,2.6a1.24,1.24,0,0,1,.33,0l1,.24a1.86,1.86,0,0,0,.33,0,1.36,1.36,0,0,0,1-.49L9,1.65a1.36,1.36,0,0,1,1-.48m0-1A2.34,2.34,0,0,0,8.21,1l-.66.78a.37.37,0,0,1-.28.13H7.18l-1-.25a2.76,2.76,0,0,0-.57-.06A2.37,2.37,0,0,0,3.26,3.79l-.08,1A.39.39,0,0,1,3,5.13L2,5.51A2.39,2.39,0,0,0,.65,7,2.35,2.35,0,0,0,.89,9l.53.87a.35.35,0,0,1,0,.39l-.53.87a2.34,2.34,0,0,0-.24,2A2.37,2.37,0,0,0,2,14.53l.94.39a.36.36,0,0,1,.23.31l.08,1a2.38,2.38,0,0,0,2.36,2.2,2.22,2.22,0,0,0,.57-.07l1-.24h.09a.37.37,0,0,1,.28.13l.66.78a2.37,2.37,0,0,0,3.62,0l.66-.78a.39.39,0,0,1,.29-.13h.09l1,.24a2.1,2.1,0,0,0,.56.07,2.39,2.39,0,0,0,2.37-2.2l.07-1a.36.36,0,0,1,.23-.31l.95-.39a2.37,2.37,0,0,0,1.12-3.44l-.54-.87a.39.39,0,0,1,0-.39L19.16,9A2.38,2.38,0,0,0,18,5.51l-.95-.38a.39.39,0,0,1-.23-.32l-.07-1A2.38,2.38,0,0,0,14.42,1.6a2.6,2.6,0,0,0-.56.06l-1,.25h-.09a.39.39,0,0,1-.29-.13L11.83,1A2.34,2.34,0,0,0,10,.17Z"/><path class="cls-3" d="M9.61,13.86l-3.06-3.8a.5.5,0,0,1-.1-.31.48.48,0,0,1,.13-.3l3-3.28.09-.06a.22.22,0,0,1,.11,0h1.68a.16.16,0,0,1,.12,0,.22.22,0,0,1,.1.09.2.2,0,0,1,0,.13.17.17,0,0,1-.05.12l-2.78,3a.56.56,0,0,0-.12.3.5.5,0,0,0,.1.31l2.85,3.55a.22.22,0,0,1,0,.12.27.27,0,0,1,0,.12.39.39,0,0,1-.1.08.24.24,0,0,1-.12,0H9.82a.2.2,0,0,1-.11,0A.23.23,0,0,1,9.61,13.86Z"/></svg>