<svg width="24" height="24" viewBox="0 0 24 24" fill="none" xmlns="http://www.w3.org/2000/svg">
<circle cx="12" cy="12" r="12" fill="#08B72F"/>
<path fill-rule="evenodd" clip-rule="evenodd" d="M19 9.15703C19 8.80742 18.8565 8.47524 18.6061 8.23268C18.3561 7.99069 18.0201 7.85718 17.6729 7.85718C17.3257 7.85718 16.9897 7.99064 16.7397 8.23263L10.7688 14.015L8.24989 11.5756L8.244 11.5701C7.99276 11.3351 7.65925 11.2074 7.3159 11.2103C6.97253 11.2132 6.64122 11.3465 6.39407 11.5858C6.14643 11.8256 6.00315 12.1532 6.00005 12.4989C5.99695 12.8446 6.1343 13.1747 6.37776 13.4188L9.83567 16.7675C10.0856 17.0095 10.4215 17.1429 10.7688 17.1429C11.116 17.1429 11.4519 17.0094 11.7019 16.7674L18.6061 10.0814C18.8565 9.83883 19 9.50665 19 9.15703Z" fill="white"/>
</svg>
